<svg xmlns="http://www.w3.org/2000/svg" viewBox="0 0 40 40" width="40" height="40">
  <rect width="40" height="40" rx="9" fill="#0B2545" />
  <path
    d="M8 24c2.2 0 2.2-2.4 4.4-2.4s2.2 2.4 4.4 2.4 2.2-2.4 4.4-2.4 2.2 2.4 4.4 2.4 2.2-2.4 4.4-2.4 2.2 2.4 2.4 2.4"
    stroke="#F5821F"
    stroke-width="2.4"
    stroke-linecap="round"
    stroke-linejoin="round"
    fill="none"
  />
  <path
    d="M8 17c2.2 0 2.2-2.4 4.4-2.4s2.2 2.4 4.4 2.4 2.2-2.4 4.4-2.4 2.2 2.4 4.4 2.4 2.2-2.4 4.4-2.4 2.2 2.4 2.4 2.4"
    stroke="#F5821F"
    stroke-width="2.4"
    stroke-linecap="round"
    stroke-linejoin="round"
    fill="none"
    opacity="0.55"
  />
</svg>
